<?xml version="1.0" encoding="iso-8859-1"?>
<!-- Generator: Adobe Illustrator 19.0.0, SVG Export Plug-In . SVG Version: 6.00 Build 0)  -->
<svg version="1.1" id="Layer_1" xmlns="http://www.w3.org/2000/svg" xmlns:xlink="http://www.w3.org/1999/xlink" x="0px" y="0px"
	 viewBox="0 0 496 496" style="enable-background:new 0 0 496 496;" xml:space="preserve">
<path style="fill:#FF9700;" d="M185.6,214.8c0,4.8-4,8-8,8H50.4c-4.8,0-8-4-8-8v-58.4c0-4.8,4-8,8-8h126.4c4.8,0,8,4,8,8v58.4H185.6
	z"/>
<path style="fill:#BC043D;" d="M8.8,291.6c0,1.6-1.6,3.2-3.2,3.2l0,0c-1.6,0-3.2-1.6-3.2-3.2v-11.2c0-1.6,1.6-3.2,3.2-3.2l0,0
	c1.6,0,3.2,1.6,3.2,3.2V291.6z"/>
<path style="fill:#FEDA00;" d="M8.8,305.2c0,1.6-1.6,3.2-3.2,3.2l0,0c-1.6,0-3.2-1.6-3.2-3.2V294c0-1.6,1.6-3.2,3.2-3.2l0,0
	c1.6,0,3.2,1.6,3.2,3.2V305.2z"/>
<g>
	<path style="fill:#FF7F00;" d="M492.8,311.6c0,4.8-4,8-8,8H480c-4.8,0-8-4-8-8v-23.2c0-4.8,4-8,8-8h4.8c4.8,0,8,4,8,8V311.6z"/>
	<path style="fill:#FF7F00;" d="M488.8,305.2c0,4.8-4,8-8,8h-468c-4.8,0-8-4-8-8v-128c0-4.8,22.4-21.6,26.4-21.6h411.2
		c4.8,0,46.4,16,46.4,20.8L488.8,305.2L488.8,305.2z"/>
</g>
<path style="fill:#FF6700;" d="M4.8,266v39.2c0,4.8,4,8,8,8h468c4.8,0,8-4,8-8V266H4.8z"/>
<path style="fill:#8E8E8E;" d="M496,316.4c0,4-3.2,7.2-7.2,7.2H7.2c-4-0.8-7.2-4-7.2-7.2l0,0c0-4,3.2-7.2,7.2-7.2h482.4
	C492.8,309.2,496,312.4,496,316.4L496,316.4z"/>
<path d="M32.8,313.2c0-20,16-36,36-36s36,16,36,36"/>
<path style="fill:#8E8E8E;" d="M106.4,313.2h-3.2c0-19.2-15.2-34.4-34.4-34.4S34.4,294,34.4,313.2h-3.2c0-20.8,16.8-37.6,37.6-37.6
	S106.4,292.4,106.4,313.2z"/>
<circle style="fill:#203547;" cx="68.8" cy="314.8" r="32.8"/>
<path style="fill:#122130;" d="M92,291.6c12.8,12.8,12.8,33.6,0,46.4s-33.6,12.8-46.4,0"/>
<circle style="fill:#FFA300;" cx="68.8" cy="314.8" r="20.8"/>
<path style="fill:#FF8500;" d="M83.2,300.4c8,8,8,20.8,0,28.8s-20.8,8-28.8,0"/>
<circle style="fill:#CED8DD;" cx="68.8" cy="314.8" r="17.6"/>
<path style="fill:#B2BBC1;" d="M81.6,302c7.2,7.2,7.2,18.4,0,25.6s-18.4,7.2-25.6,0"/>
<path style="opacity:0.2;fill:#888F91;enable-background:new    ;" d="M77.6,314.8c0,4.8-4,9.6-8,9.6c-4.8,0-8-4.8-8-9.6
	c0-4.8,4-8,8-8S77.6,310,77.6,314.8z"/>
<circle style="fill:#E7EFF2;" cx="68.8" cy="314.8" r="8"/>
<path style="fill:#DAE6EA;" d="M68.8,306.8c4.8,0,8,4,8,8c0,4.8-4,8-8,8"/>
<path style="fill:#666E70;" d="M68.8,297.2c-0.8,0-1.6,0-2.4,0c0,2.4,1.6,4.8,2.4,4.8s2.4-1.6,2.4-4.8
	C70.4,297.2,69.6,297.2,68.8,297.2z"/>
<path style="fill:#535A5B;" d="M68.8,301.2c0.8,0,2.4-1.6,2.4-4.8c-0.8,0-1.6,0-2.4,0"/>
<path style="fill:#666E70;" d="M66.4,332.4c1.6,0,3.2,0,4.8,0c0-2.4-1.6-4-2.4-4S67.2,330,66.4,332.4z"/>
<path style="fill:#535A5B;" d="M71.2,332.4c0-2.4-1.6-4-2.4-4"/>
<path style="fill:#666E70;" d="M54.4,303.6c2.4,1.6,4,2.4,4.8,1.6s0-2.4-1.6-4.8C56.8,301.2,56,302.8,54.4,303.6z"/>
<path style="fill:#535A5B;" d="M59.2,305.2c0.8-0.8,0-2.4-1.6-4.8"/>
<path style="fill:#666E70;" d="M83.2,326c-2.4-1.6-4-2.4-4.8-1.6s0,2.4,1.6,4.8c0.8-0.8,1.6-0.8,1.6-1.6
	C82.4,326.8,82.4,326,83.2,326z"/>
<path style="fill:#535A5B;" d="M81.6,327.6c0.8-0.8,0.8-1.6,1.6-1.6c-2.4-1.6-4-2.4-4.8-1.6"/>
<path style="fill:#666E70;" d="M51.2,317.2c2.4,0,4.8-1.6,4.8-2.4s-1.6-2.4-4.8-2.4c0,0.8,0,1.6,0,2.4S51.2,316.4,51.2,317.2z"/>
<path style="fill:#535A5B;" d="M55.2,314.8c0-0.8-1.6-2.4-4.8-2.4c0,0.8,0,1.6,0,2.4"/>
<path style="fill:#666E70;" d="M82.4,314.8c0,0.8,1.6,2.4,4.8,2.4c0-1.6,0-3.2,0-4.8C84,312.4,82.4,314,82.4,314.8z"/>
<path style="fill:#535A5B;" d="M86.4,312.4c-2.4,0-4.8,1.6-4.8,2.4"/>
<path style="fill:#666E70;" d="M54.4,326c0.8,1.6,2.4,2.4,3.2,3.2c1.6-2.4,2.4-4,1.6-4.8C58.4,323.6,56.8,324.4,54.4,326z"/>
<path style="fill:#535A5B;" d="M58.4,329.2c1.6-2.4,2.4-4,1.6-4.8"/>
<path style="fill:#666E70;" d="M80,300.4c-1.6,2.4-2.4,4-1.6,4.8s3.2,0,4.8-1.6C82.4,302.8,80.8,301.2,80,300.4z"/>
<path style="fill:#535A5B;" d="M80,300.4c-1.6,2.4-2.4,4-1.6,4.8"/>
<path d="M352,313.2c0-20,16-36,36-36s36,16,36,36"/>
<path style="fill:#8E8E8E;" d="M425.6,313.2h-3.2c0-19.2-15.2-34.4-34.4-34.4c-19.2,0-34.4,15.2-34.4,34.4h-3.2
	c0-20.8,16.8-37.6,37.6-37.6C408.8,275.6,425.6,292.4,425.6,313.2z"/>
<circle style="fill:#203547;" cx="388" cy="314.8" r="32.8"/>
<path style="fill:#122130;" d="M411.2,291.6c12.8,12.8,12.8,33.6,0,46.4s-33.6,12.8-46.4,0"/>
<circle style="fill:#FFA300;" cx="388" cy="314.8" r="20.8"/>
<path style="fill:#FF8500;" d="M402.4,300.4c8,8,8,20.8,0,28.8s-20.8,8-28.8,0"/>
<circle style="fill:#CED8DD;" cx="388" cy="314.8" r="17.6"/>
<path style="fill:#B2BBC1;" d="M400.8,302c7.2,7.2,7.2,18.4,0,25.6s-18.4,7.2-25.6,0"/>
<path style="opacity:0.2;fill:#888F91;enable-background:new    ;" d="M396.8,314.8c0,4.8-4,9.6-8,9.6c-4.8,0-8-4.8-8-9.6
	c0-4.8,4-8,8-8S396.8,310,396.8,314.8z"/>
<circle style="fill:#E7EFF2;" cx="388" cy="314.8" r="8"/>
<path style="fill:#DAE6EA;" d="M388,306.8c4.8,0,8,4,8,8c0,4.8-4,8-8,8"/>
<path style="fill:#666E70;" d="M388,297.2c-0.8,0-1.6,0-2.4,0c0,2.4,1.6,4.8,2.4,4.8s2.4-1.6,2.4-4.8
	C389.6,297.2,388.8,297.2,388,297.2z"/>
<path style="fill:#535A5B;" d="M388,301.2c0.8,0,2.4-1.6,2.4-4.8c-0.8,0-1.6,0-2.4,0"/>
<path style="fill:#666E70;" d="M385.6,332.4c1.6,0,3.2,0,4.8,0c0-2.4-1.6-4-2.4-4S386.4,330,385.6,332.4z"/>
<path style="fill:#535A5B;" d="M390.4,332.4c0-2.4-1.6-4-2.4-4"/>
<path style="fill:#666E70;" d="M373.6,303.6c2.4,1.6,4,2.4,4.8,1.6s0-2.4-1.6-4.8C376,301.2,375.2,302.8,373.6,303.6z"/>
<path style="fill:#535A5B;" d="M378.4,305.2c0.8-0.8,0-2.4-1.6-4.8"/>
<path style="fill:#666E70;" d="M402.4,326c-2.4-1.6-4-2.4-4.8-1.6s0,2.4,1.6,4.8c0.8-0.8,1.6-0.8,1.6-1.6
	C401.6,326.8,401.6,326,402.4,326z"/>
<path style="fill:#535A5B;" d="M400.8,327.6c0.8-0.8,0.8-1.6,1.6-1.6c-2.4-1.6-4-2.4-4.8-1.6"/>
<path style="fill:#666E70;" d="M370.4,317.2c2.4,0,4.8-1.6,4.8-2.4s-1.6-2.4-4.8-2.4c0,0.8,0,1.6,0,2.4S370.4,316.4,370.4,317.2z"/>
<path style="fill:#535A5B;" d="M375.2,314.8c0-0.8-1.6-2.4-4.8-2.4c0,0.8,0,1.6,0,2.4"/>
<path style="fill:#666E70;" d="M401.6,314.8c0,0.8,1.6,2.4,4,2.4c0-1.6,0-3.2,0-4.8C403.2,312.4,401.6,314,401.6,314.8z"/>
<path style="fill:#535A5B;" d="M405.6,312.4c-2.4,0-4.8,1.6-4.8,2.4"/>
<path style="fill:#666E70;" d="M373.6,326c0.8,1.6,2.4,2.4,3.2,3.2c1.6-2.4,2.4-4,1.6-4.8C377.6,323.6,376,324.4,373.6,326z"/>
<path style="fill:#535A5B;" d="M377.6,329.2c1.6-2.4,2.4-4,1.6-4.8"/>
<path style="fill:#666E70;" d="M399.2,300.4c-1.6,2.4-2.4,4-1.6,4.8s2.4,0,4.8-1.6C401.6,302.8,400,301.2,399.2,300.4z"/>
<path style="fill:#535A5B;" d="M399.2,300.4c-1.6,2.4-2.4,4-1.6,4.8"/>
<g>
	<path style="fill:#51859B;" d="M488.8,181.2H387.2c-4.8,0-8,4-8,8v34.4c0,4.8,4,8,8,8h102.4v-50.4H488.8z"/>
	<path style="fill:#51859B;" d="M4.8,231.6h88c4.8,0,8-4,8-8V190c0-4.8-4-8-8-8h-88C4.8,182,4.8,231.6,4.8,231.6z"/>
	<path style="fill:#51859B;" d="M208,223.6c0,4.8-4,8-8,8h-80c-4.8,0-8-4-8-8V190c0-4.8,4-8,8-8h80c4.8,0,8,4,8,8V223.6z"/>
	<path style="fill:#51859B;" d="M368.8,223.6c0,4.8-4,8-8,8h-63.2c-4.8,0-8-4-8-8V190c0-4.8,4-8,8-8h63.2c4.8,0,8,4,8,8V223.6z"/>
</g>
<path style="fill:#FF9700;" d="M280,313.2V190c0-4.8-4-8-8-8h-48.8c-4.8,0-8,4-8,8v124H280V313.2z"/>
<rect x="245.6" y="175.6" style="fill:#FF7F00;" width="2.4" height="132"/>
<path style="fill:#A5A5A5;" d="M284,319.6c0,1.6-1.6,3.2-3.2,3.2h-68c-1.6,0-3.2-1.6-3.2-3.2v-12c0-1.6,1.6-3.2,3.2-3.2h68
	c1.6,0,3.2,1.6,3.2,3.2V319.6z"/>
<path style="fill:#939393;" d="M285.6,328.4v-12.8c0-1.6-1.6-3.2-3.2-3.2h-71.2c-1.6,0-3.2,1.6-3.2,3.2v12.8H285.6z"/>
<path style="fill:#A5A5A5;" d="M287.2,328.4v-4c0-1.6-1.6-3.2-3.2-3.2h-74.4c-1.6,0-3.2,1.6-3.2,3.2v4H287.2z"/>
<path style="fill:#FFDA00;" d="M492,280.4c0,2.4-2.4,4.8-4.8,4.8l0,0c-2.4,0-4.8-2.4-4.8-4.8v-9.6c0-2.4,2.4-4.8,4.8-4.8l0,0
	c2.4,0,4.8,2.4,4.8,4.8V280.4z"/>
<g>
	<path style="fill:#8E8E8E;" d="M456.8,240.4c0,0.8-0.8,1.6-1.6,1.6h-10.4c-0.8,0-1.6-0.8-1.6-1.6l0,0c0-0.8,0.8-1.6,1.6-1.6h10.4
		C456.8,238.8,456.8,238.8,456.8,240.4L456.8,240.4z"/>
	<path style="fill:#8E8E8E;" d="M240.8,246.8c0,0.8-0.8,1.6-1.6,1.6h-10.4c-0.8,0-1.6-0.8-1.6-1.6l0,0c0-0.8,0.8-1.6,1.6-1.6h10.4
		C240,245.2,240.8,246,240.8,246.8L240.8,246.8z"/>
	<path style="fill:#8E8E8E;" d="M266.4,246.8c0,0.8-0.8,1.6-1.6,1.6h-10.4c-0.8,0-1.6-0.8-1.6-1.6l0,0c0-0.8,0.8-1.6,1.6-1.6h10.4
		C265.6,245.2,266.4,246,266.4,246.8L266.4,246.8z"/>
</g>
<g>
	<polygon style="fill:#81B6C9;" points="43.2,181.2 4.8,219.6 4.8,231.6 10.4,231.6 60.8,181.2 	"/>
	<polygon style="fill:#81B6C9;" points="36.8,181.2 25.6,181.2 4.8,202.8 4.8,213.2 	"/>
	<polygon style="fill:#81B6C9;" points="82.4,181.2 73.6,181.2 24,231.6 32.8,231.6 	"/>
	<path style="fill:#81B6C9;" d="M65.6,231.6h27.2c4.8,0,8-4,8-8v-27.2L65.6,231.6z"/>
	<path style="fill:#81B6C9;" d="M152,231.6l49.6-49.6c-0.8,0-0.8,0-1.6,0h-7.2l-49.6,49.6H152z"/>
	<path style="fill:#81B6C9;" d="M144.8,181.2L112,214v9.6c0,0.8,0,0.8,0,1.6l43.2-43.2h-10.4V181.2z"/>
	<path style="fill:#81B6C9;" d="M129.6,231.6l50.4-50.4h-17.6l-48,48c1.6,1.6,3.2,2.4,5.6,2.4H129.6z"/>
	<path style="fill:#81B6C9;" d="M184.8,231.6H200c4.8,0,8-4,8-8v-16L184.8,231.6z"/>
	<path style="fill:#81B6C9;" d="M124,181.2h-4c-4.8,0-8,4-8,8v3.2L124,181.2z"/>
	<path style="fill:#81B6C9;" d="M330.4,181.2l-41.6,42.4l0,0c0,2.4,0.8,4.8,2.4,5.6l48-48H330.4z"/>
	<polygon style="fill:#81B6C9;" points="317.6,181.2 300,181.2 288.8,192.4 288.8,210 	"/>
	<path style="fill:#81B6C9;" d="M322.4,231.6h38.4c4.8,0,8-4,8-8V190c0-1.6,0-2.4-0.8-3.2L322.4,231.6z"/>
	<path style="fill:#81B6C9;" d="M428,181.2l-47.2,47.2c1.6,1.6,4,3.2,6.4,3.2h1.6l50.4-50.4H428z"/>
	<polygon style="fill:#81B6C9;" points="484.8,181.2 476,181.2 425.6,231.6 434.4,231.6 	"/>
	<polygon style="fill:#81B6C9;" points="462.4,181.2 444.8,181.2 394.4,231.6 412.8,231.6 	"/>
	<path style="fill:#81B6C9;" d="M406.4,181.2h-19.2c-4.8,0-8,4-8,8v19.2L406.4,181.2z"/>
	<polygon style="fill:#81B6C9;" points="467.2,231.6 488.8,231.6 488.8,210 	"/>
</g>
<g>
	
		<rect x="39.142" y="168.598" transform="matrix(-0.8566 -0.516 0.516 -0.8566 -20.4427 409.9153)" style="fill:#FF7F00;" width="15.2" height="78.401"/>
	<rect x="426.4" y="174" style="fill:#FF7F00;" width="12.8" height="68.8"/>
</g>
<g>
</g>
<g>
</g>
<g>
</g>
<g>
</g>
<g>
</g>
<g>
</g>
<g>
</g>
<g>
</g>
<g>
</g>
<g>
</g>
<g>
</g>
<g>
</g>
<g>
</g>
<g>
</g>
<g>
</g>
</svg>
